<svg width="18" height="23" viewBox="0 0 18 23" fill="none" xmlns="http://www.w3.org/2000/svg">
<path d="M10.0835 8.43783H16.0418L10.0835 2.47949V8.43783ZM2.50016 0.854492H11.1668L17.6668 7.35449V20.3545C17.6668 20.9291 17.4386 21.4802 17.0322 21.8866C16.6259 22.2929 16.0748 22.5212 15.5002 22.5212H2.50016C1.92553 22.5212 1.37443 22.2929 0.968098 21.8866C0.561769 21.4802 0.333496 20.9291 0.333496 20.3545V3.02116C0.333496 2.44652 0.561769 1.89542 0.968098 1.48909C1.37443 1.08277 1.92553 0.854492 2.50016 0.854492ZM7.841 12.1645C8.28516 13.1395 8.8485 13.9412 9.4985 14.4937L9.94266 14.8403C9.00016 15.0137 7.70016 15.317 6.32433 15.8478L6.20516 15.8912L6.74683 14.7645C7.23433 13.822 7.59183 12.9662 7.841 12.1645ZM14.861 16.292C15.056 16.097 15.1535 15.8478 15.1643 15.577C15.1968 15.3603 15.1427 15.1545 15.0343 14.9812C14.7202 14.472 13.9077 14.2337 12.5643 14.2337L11.1668 14.3095L10.2243 13.6812C9.54183 13.1178 8.92433 12.132 8.491 10.9078L8.53433 10.7562C8.89183 9.31533 9.22766 7.57116 8.51266 6.85616C8.42521 6.77124 8.32176 6.70453 8.20832 6.65989C8.09488 6.61526 7.97371 6.5936 7.85183 6.59616H7.59183C7.191 6.59616 6.8335 7.01866 6.736 7.43033C6.33516 8.87116 6.5735 9.66199 6.97433 10.9728V10.9837C6.7035 11.937 6.35683 13.042 5.80433 14.1578L4.76433 16.1078L3.80016 16.6387C2.50016 17.4512 1.88266 18.3612 1.7635 18.9353C1.72016 19.1412 1.74183 19.3253 1.81766 19.5203L1.85016 19.5745L2.37016 19.9103L2.84683 20.0295C3.72433 20.0295 4.721 19.0003 6.06433 16.7037L6.25933 16.6278C7.37516 16.2703 8.76183 16.0212 10.6252 15.8153C11.741 16.3678 13.0518 16.617 13.8752 16.617C14.3518 16.617 14.6768 16.4978 14.861 16.292ZM14.4168 15.5228L14.5143 15.642C14.5035 15.7503 14.471 15.7612 14.4168 15.7828H14.3735L14.1677 15.8045C13.6693 15.8045 12.9002 15.5987 12.1093 15.252C12.2068 15.1437 12.2502 15.1437 12.3585 15.1437C13.8752 15.1437 14.3085 15.4145 14.4168 15.5228ZM4.48266 17.1045C3.7785 18.3937 3.13933 19.1087 2.65183 19.2712C2.706 18.8595 3.1935 18.1445 3.96266 17.4403L4.48266 17.1045ZM7.75433 9.61866C7.50516 8.64366 7.49433 7.85283 7.6785 7.39783L7.75433 7.26783L7.91683 7.32199C8.101 7.58199 8.12266 7.92866 8.01433 8.51366L7.98183 8.68699L7.8085 9.57533L7.75433 9.61866Z" fill="#EF5350"/>
</svg>
