<svg width="36" height="36" viewBox="0 0 36 36" fill="none" xmlns="http://www.w3.org/2000/svg">
<g clip-path="url(#clip0_4849_3510)">
<path d="M36 18C36.0032 20.4366 35.51 22.8484 34.5504 25.0882L34.4908 25.2256C32.8676 28.9182 30.0531 31.9599 26.4973 33.8642C22.9415 35.7685 18.8498 36.4255 14.8766 35.73C14.7685 35.7108 14.6606 35.6909 14.5528 35.6704C13.4395 35.4545 12.3492 35.133 11.2969 34.7102C11.1259 34.6415 10.9562 34.5703 10.7878 34.4966C10.6727 34.4466 10.5577 34.3949 10.4437 34.3417C7.32618 32.8968 4.68666 30.5907 2.83629 27.6954C0.985926 24.8001 0.00183017 21.4361 0 18C0 8.05899 8.05899 0 18 0C27.941 0 36 8.05899 36 18Z" fill="url(#paint0_linear_4849_3510)"/>
<path opacity="0.2" d="M14.8767 35.7299C14.7686 35.7108 14.6607 35.6909 14.5529 35.6703C14.4826 33.6301 14.2414 29.4427 13.4186 25.0572C12.9686 22.657 12.3439 20.1967 11.4775 17.9973C11.1806 17.2363 10.8416 16.4924 10.4619 15.7691C9.5864 14.1156 8.52451 12.7235 7.23682 11.7804L7.4264 11.5215C8.49735 12.3065 9.45983 13.4085 10.3139 14.8276C10.57 15.2526 10.816 15.7059 11.052 16.1877C11.3049 16.7032 11.5462 17.2505 11.7757 17.8295C11.9221 18.1981 12.0636 18.5794 12.2001 18.9734C12.7944 20.6845 13.2997 22.6368 13.7157 24.8304C13.8079 25.315 13.8956 25.8115 13.9788 26.3199C14.6237 30.2591 14.8181 33.9012 14.8767 35.7299Z" fill="url(#paint1_linear_4849_3510)"/>
<path opacity="0.2" d="M10.7877 34.4966C10.6727 34.4466 10.5576 34.3949 10.4437 34.3417C10.3324 33.1328 10.1279 31.6332 9.75402 30.2097C9.59028 29.5703 9.38008 28.9438 9.12509 28.3351C8.69852 27.3366 8.14627 26.4877 7.43213 25.9642L7.62171 25.7059C8.36941 26.2534 8.94615 27.1188 9.39189 28.1311C9.89408 29.2718 10.229 30.5995 10.4522 31.868C10.6178 32.8101 10.7222 33.7202 10.7877 34.4966Z" fill="url(#paint2_linear_4849_3510)"/>
<path opacity="0.2" d="M5.4461 11.7729C6.33105 11.7729 7.04845 11.0555 7.04845 10.1706C7.04845 9.28563 6.33105 8.56824 5.4461 8.56824C4.56115 8.56824 3.84375 9.28563 3.84375 10.1706C3.84375 11.0555 4.56115 11.7729 5.4461 11.7729Z" fill="url(#paint3_linear_4849_3510)"/>
<path opacity="0.2" d="M5.96173 25.5663C6.84668 25.5663 7.56407 24.8489 7.56407 23.964C7.56407 23.079 6.84668 22.3616 5.96173 22.3616C5.07677 22.3616 4.35938 23.079 4.35938 23.964C4.35938 24.8489 5.07677 25.5663 5.96173 25.5663Z" fill="url(#paint4_linear_4849_3510)"/>
<path opacity="0.2" d="M11.8076 12.862C11.4678 14.7791 12.2179 16.5149 12.2179 16.5149C12.2179 16.5149 13.5189 15.1426 13.8587 13.2256C14.1984 11.3086 13.4483 9.57275 13.4483 9.57275C13.4483 9.57275 12.1474 10.945 11.8076 12.862Z" fill="url(#paint5_linear_4849_3510)"/>
<path opacity="0.2" d="M6.48204 17.4126C8.31053 18.0812 10.1479 17.6521 10.1479 17.6521C10.1479 17.6521 9.02072 16.139 7.19223 15.4704C5.36374 14.8018 3.52637 15.2309 3.52637 15.2309C3.52637 15.2309 4.65356 16.744 6.48204 17.4126Z" fill="url(#paint6_linear_4849_3510)"/>
<path opacity="0.2" d="M6.17193 29.6272C7.45355 30.0959 8.74322 29.7901 8.74322 29.7901C8.74322 29.7901 7.95496 28.7246 6.67334 28.256C5.39172 27.7873 4.10205 28.093 4.10205 28.093C4.10205 28.093 4.8903 29.1586 6.17193 29.6272Z" fill="url(#paint7_linear_4849_3510)"/>
<path d="M17.9631 21.986C21.8387 21.986 24.9805 18.8442 24.9805 14.9686C24.9805 11.0931 21.8387 7.95129 17.9631 7.95129C14.0876 7.95129 10.9458 11.0931 10.9458 14.9686C10.9458 18.8442 14.0876 21.986 17.9631 21.986Z" fill="#D9D9D9"/>
<path d="M15.2222 20.3413C15.2222 20.3413 16.0993 24.5078 16.0993 24.9464C16.0993 25.385 20.2659 27.3586 20.2659 27.3586L23.9939 26.7008L25.3096 22.7535C25.3096 22.7535 23.1167 19.4641 23.1167 18.1484L15.2222 20.3413Z" fill="#D9D9D9"/>
<path d="M34.5503 25.0881L34.4906 25.2255C32.8675 28.9182 30.0529 31.9598 26.4971 33.8641C22.9414 35.7685 18.8497 36.4254 14.8765 35.73C14.7684 35.7108 14.6604 35.6909 14.5527 35.6703C13.4393 35.4545 12.349 35.133 11.2967 34.7101C11.1258 34.6414 10.9561 34.5703 10.7876 34.4966C10.6726 34.4465 10.5575 34.3949 10.4436 34.3416C9.41059 33.8631 8.4254 33.2875 7.50127 32.6226L6.66943 30.2096L7.13701 29.8528L8.09878 29.1184L9.125 28.3351L9.3918 28.1311L13.4184 25.0573L13.7155 24.8304L15.8084 23.2328L15.809 23.2322C15.809 23.2322 18.0723 26.9201 21.3618 25.8236C24.6513 24.7271 24.5794 21.5829 24.5794 21.5829L34.5503 25.0881Z" fill="white"/>
<path d="M11.8779 9.31508C11.8779 9.31508 14.1059 4.48778 18.3762 5.60178C22.6465 6.71577 25.0601 8.38675 25.2458 10.0577C25.4315 11.7287 25.153 14.2352 25.153 14.2352C25.153 14.2352 24.6888 10.8004 21.7182 11.5431C18.7475 12.2857 14.1059 11.7287 14.1059 11.7287L13.3632 18.4127C13.3632 18.4127 12.5277 17.2058 11.5994 17.9485C10.6711 18.6912 8.90727 10.8004 11.8779 9.31508Z" fill="#FFF0E6"/>
<path d="M11.297 34.7102C11.126 34.6415 10.9563 34.5703 10.7879 34.4966C10.6728 34.4466 10.5578 34.3949 10.4439 34.3417C8.7354 33.5494 7.1615 32.4947 5.7793 31.2156C6.26871 30.5489 6.66971 30.2097 6.66971 30.2097H9.95924L10.4524 31.868L11.297 34.7102Z" fill="url(#paint8_linear_4849_3510)"/>
<path d="M31.669 24.7271L34.491 25.2256C33.7358 26.946 32.7159 28.5375 31.4683 29.9423L31.669 24.7271Z" fill="url(#paint9_linear_4849_3510)"/>
</g>
<defs>
<linearGradient id="paint0_linear_4849_3510" x1="18" y1="0" x2="18" y2="36" gradientUnits="userSpaceOnUse">
<stop stop-color="#201309"/>
<stop offset="1" stop-color="#452D14"/>
</linearGradient>
<linearGradient id="paint1_linear_4849_3510" x1="11.0568" y1="11.5215" x2="11.0568" y2="35.7299" gradientUnits="userSpaceOnUse">
<stop stop-color="#201309"/>
<stop offset="1" stop-color="#452D14"/>
</linearGradient>
<linearGradient id="paint2_linear_4849_3510" x1="9.10991" y1="25.7059" x2="9.10991" y2="34.4966" gradientUnits="userSpaceOnUse">
<stop stop-color="#201309"/>
<stop offset="1" stop-color="#452D14"/>
</linearGradient>
<linearGradient id="paint3_linear_4849_3510" x1="5.4461" y1="8.56824" x2="5.4461" y2="11.7729" gradientUnits="userSpaceOnUse">
<stop stop-color="#201309"/>
<stop offset="1" stop-color="#452D14"/>
</linearGradient>
<linearGradient id="paint4_linear_4849_3510" x1="5.96172" y1="22.3616" x2="5.96172" y2="25.5663" gradientUnits="userSpaceOnUse">
<stop stop-color="#201309"/>
<stop offset="1" stop-color="#452D14"/>
</linearGradient>
<linearGradient id="paint5_linear_4849_3510" x1="12.8331" y1="9.57275" x2="12.8331" y2="16.5149" gradientUnits="userSpaceOnUse">
<stop stop-color="#201309"/>
<stop offset="1" stop-color="#452D14"/>
</linearGradient>
<linearGradient id="paint6_linear_4849_3510" x1="6.83714" y1="15.0953" x2="6.83714" y2="17.7877" gradientUnits="userSpaceOnUse">
<stop stop-color="#201309"/>
<stop offset="1" stop-color="#452D14"/>
</linearGradient>
<linearGradient id="paint7_linear_4849_3510" x1="6.42263" y1="27.9951" x2="6.42263" y2="29.8881" gradientUnits="userSpaceOnUse">
<stop stop-color="#201309"/>
<stop offset="1" stop-color="#452D14"/>
</linearGradient>
<linearGradient id="paint8_linear_4849_3510" x1="8.53814" y1="30.2097" x2="8.53814" y2="34.7102" gradientUnits="userSpaceOnUse">
<stop stop-color="#201309"/>
<stop offset="1" stop-color="#452D14"/>
</linearGradient>
<linearGradient id="paint9_linear_4849_3510" x1="32.9796" y1="24.7271" x2="32.9796" y2="29.9423" gradientUnits="userSpaceOnUse">
<stop stop-color="#201309"/>
<stop offset="1" stop-color="#452D14"/>
</linearGradient>
<clipPath id="clip0_4849_3510">
<rect width="36" height="36" fill="white"/>
</clipPath>
</defs>
</svg>
