<svg width="59" height="59" viewBox="0 0 59 59" fill="none" xmlns="http://www.w3.org/2000/svg">
<path d="M29.5001 59C45.7929 59 59 45.7928 59 29.5V8.85C59 6.50283 58.0676 4.2518 56.4079 2.5921C54.7482 0.932407 52.4972 0 50.1501 0H30.9751V12.9416C30.9751 15.8946 31.155 18.9537 32.7038 21.4671C33.8125 23.2684 35.2957 24.8101 37.0528 25.9877C38.8098 27.1653 40.7996 27.9511 42.8872 28.292L43.4521 28.3834C43.685 28.463 43.8871 28.6135 44.0303 28.8137C44.1735 29.0139 44.2504 29.2539 44.2504 29.5C44.2504 29.7461 44.1735 29.9861 44.0303 30.1863C43.8871 30.3865 43.685 30.537 43.4521 30.6166L42.8872 30.708C39.8371 31.2063 37.0206 32.6499 34.8353 34.8352C32.65 37.0205 31.2063 39.837 30.7081 42.8871L30.6166 43.452C30.537 43.6849 30.3866 43.8871 30.1864 44.0302C29.9862 44.1734 29.7462 44.2504 29.5001 44.2504C29.2539 44.2504 29.014 44.1734 28.8137 44.0302C28.6135 43.8871 28.4631 43.6849 28.3835 43.452L28.292 42.8871C27.9511 40.7996 27.1652 38.8098 25.9877 37.0528C24.8101 35.2957 23.2684 33.8125 21.4672 32.7037C18.9538 31.1549 15.8947 30.975 12.9417 30.975H0.0354706C0.806895 46.582 13.7028 59 29.5001 59Z" fill="url(#paint0_linear_4243_2799)"/>
<path d="M0 28.0252H12.9416C15.8946 28.0252 18.9537 27.8452 21.4671 26.2965C23.4319 25.0859 25.0858 23.432 26.2963 21.4673C27.845 18.9539 28.025 15.8948 28.025 12.9418V0.000178271H8.85C6.50283 0.000178271 4.2518 0.932586 2.5921 2.59228C0.932408 4.25198 0 6.50301 0 8.85017V28.0252Z" fill="url(#paint1_linear_4243_2799)"/>
<defs>
<linearGradient id="paint0_linear_4243_2799" x1="29.5" y1="0" x2="29.5" y2="59" gradientUnits="userSpaceOnUse">
<stop stop-color="#201309"/>
<stop offset="1" stop-color="#452D14"/>
</linearGradient>
<linearGradient id="paint1_linear_4243_2799" x1="29.5" y1="0" x2="29.5" y2="59" gradientUnits="userSpaceOnUse">
<stop stop-color="#201309"/>
<stop offset="1" stop-color="#452D14"/>
</linearGradient>
</defs>
</svg>
