<svg version="1.2" xmlns="http://www.w3.org/2000/svg" viewBox="0 0 109 32" width="109" height="32">
	<title>Frame 1249186478</title>
	<defs>
		<linearGradient id="g1" x2="1" gradientUnits="userSpaceOnUse" gradientTransform="matrix(0,32,-31.981,0,16,0)">
			<stop offset="0" stop-color="#201309"/>
			<stop offset="1" stop-color="#452d14"/>
		</linearGradient>
		<linearGradient id="g2" x2="1" gradientUnits="userSpaceOnUse" gradientTransform="matrix(0,32,-32,0,16,0)">
			<stop offset="0" stop-color="#201309"/>
			<stop offset="1" stop-color="#452d14"/>
		</linearGradient>
		<linearGradient id="g3" x2="1" gradientUnits="userSpaceOnUse" gradientTransform="matrix(0,26,-109.287,0,78,3)">
			<stop offset="0" stop-color="#201309"/>
			<stop offset="1" stop-color="#452d14"/>
		</linearGradient>
	</defs>
	<style>
		.s0 { fill: url(#g1) } 
		.s1 { fill: url(#g2) } 
		.s2 { fill: url(#g3) } 
	</style>
	<path class="s0" d="m16 32c8.8 0 16-7.2 16-16v-11.2c0-1.3-0.5-2.5-1.4-3.4-0.9-0.9-2.1-1.4-3.4-1.4h-10.4v7c0 1.6 0.1 3.3 0.9 4.6 0.6 1 1.4 1.9 2.4 2.5 0.9 0.6 2 1.1 3.2 1.2l0.3 0.1q0.2 0.1 0.3 0.2 0.1 0.2 0.1 0.4 0 0.2-0.1 0.4-0.1 0.1-0.3 0.2l-0.3 0.1c-1.7 0.2-3.2 1-4.4 2.2-1.2 1.2-2 2.7-2.2 4.4l-0.1 0.3q-0.1 0.2-0.2 0.3-0.2 0.1-0.4 0.1-0.2 0-0.4-0.1-0.1-0.1-0.2-0.3l-0.1-0.3c-0.1-1.2-0.6-2.3-1.2-3.2-0.6-1-1.5-1.8-2.5-2.4-1.3-0.8-3-0.9-4.6-0.9h-7c0.4 8.5 7.4 15.2 16 15.2z"/>
	<path class="s1" d="m0 15.2h7c1.6 0 3.3-0.1 4.6-0.9 1.1-0.7 2-1.6 2.7-2.7 0.8-1.3 0.9-3 0.9-4.6v-7h-10.4c-1.3 0-2.5 0.5-3.4 1.4-0.9 0.9-1.4 2.1-1.4 3.4z"/>
	<path class="s2" d="m48.7 23q-0.4 0-0.6-0.2-0.2-0.3-0.2-0.7v-12.4q0-0.5 0.2-0.7 0.2-0.2 0.6-0.2 0.4 0 0.6 0.2 0.2 0.2 0.2 0.7v11.9h6.6q0.3 0 0.5 0.2 0.2 0.1 0.2 0.5 0 0.3-0.2 0.5-0.2 0.2-0.5 0.2zm18 0.2q-2 0-3.4-0.9-1.5-0.9-2.3-2.5-0.7-1.6-0.7-3.9 0-1.6 0.4-3 0.5-1.3 1.3-2.2 0.8-1 2-1.5 1.2-0.5 2.7-0.5 2 0 3.4 0.9 1.5 0.9 2.3 2.5 0.8 1.6 0.8 3.8 0 1.7-0.5 3-0.4 1.4-1.3 2.3-0.8 1-2 1.5-1.2 0.5-2.7 0.5zm0-1.5q1.5 0 2.6-0.7 1-0.6 1.6-1.9 0.5-1.3 0.5-3.2 0-2.7-1.2-4.2-1.2-1.5-3.5-1.5-1.5 0-2.5 0.7-1.1 0.6-1.6 1.9-0.6 1.3-0.6 3.1 0 2.8 1.2 4.3 1.3 1.5 3.5 1.5zm18.7 1.5q-2.3 0-3.9-0.9-1.5-0.8-2.3-2.5-0.8-1.6-0.8-3.8 0-1.7 0.4-3.1 0.5-1.3 1.4-2.2 0.8-1 2.1-1.5 1.2-0.5 2.8-0.5 1.3 0 2.5 0.4 1.1 0.3 2.1 1.1 0.2 0.2 0.3 0.4 0 0.2-0.1 0.4 0 0.2-0.2 0.4-0.1 0.1-0.4 0.2-0.2 0-0.4-0.2-0.8-0.6-1.8-0.9-0.9-0.3-2-0.3-1.6 0-2.7 0.7-1.1 0.7-1.7 1.9-0.6 1.3-0.6 3.2 0 2.8 1.3 4.2 1.4 1.5 4 1.5 1 0 1.9-0.2 0.9-0.2 1.7-0.5l-0.3 0.9v-4.9h-2.9q-0.4 0-0.5-0.2-0.2-0.2-0.2-0.5 0-0.3 0.2-0.5 0.1-0.1 0.5-0.1h3.6q0.3 0 0.5 0.1 0.2 0.2 0.2 0.6v5.2q0 0.3-0.1 0.5-0.1 0.2-0.4 0.3-0.8 0.3-2 0.6-1.1 0.2-2.2 0.2zm16.7 0q-1.9 0-3.4-0.9-1.4-0.9-2.2-2.5-0.8-1.6-0.8-3.9 0-1.6 0.4-3 0.5-1.3 1.3-2.2 0.9-1 2.1-1.5 1.2-0.5 2.6-0.5 2 0 3.5 0.9 1.4 0.9 2.2 2.5 0.8 1.6 0.8 3.8 0 1.7-0.4 3-0.5 1.4-1.3 2.3-0.9 1-2.1 1.5-1.2 0.5-2.7 0.5zm0-1.5q1.6 0 2.6-0.7 1.1-0.6 1.6-1.9 0.6-1.3 0.6-3.2 0-2.7-1.3-4.2-1.2-1.5-3.5-1.5-1.4 0-2.5 0.7-1 0.6-1.6 1.9-0.6 1.3-0.6 3.1 0 2.8 1.3 4.3 1.2 1.5 3.4 1.5z"/>
</svg>