<svg version="1.2" xmlns="http://www.w3.org/2000/svg" viewBox="0 0 117 35" width="117" height="35">
	<title>logo-white</title>
	<defs>
		<clipPath clipPathUnits="userSpaceOnUse" id="cp1">
			<path d="m-6-12h130c2.76 0 5 2.24 5 5v49c0 2.76-2.24 5-5 5h-130c-2.76 0-5-2.24-5-5v-49c0-2.76 2.24-5 5-5z"/>
		</clipPath>
	</defs>
	<style>
		.s0 { fill: #ffffff } 
	</style>
	<g id="Clip-Path" clip-path="url(#cp1)">
		<g>
			<path class="s0" d="m17.5 35c9.7 0 17.5-7.8 17.5-17.5v-12.3c0-1.3-0.6-2.7-1.5-3.7-1-0.9-2.4-1.5-3.8-1.5h-11.3v7.7c0 1.7 0.1 3.5 1 5 0.7 1.1 1.5 2 2.6 2.7 1 0.7 2.2 1.2 3.4 1.4h0.4q0.2 0.1 0.3 0.3 0.1 0.2 0.2 0.4-0.1 0.2-0.2 0.4-0.1 0.2-0.3 0.3h-0.4c-1.8 0.3-3.4 1.2-4.7 2.5-1.3 1.3-2.2 2.9-2.5 4.7v0.4q-0.1 0.2-0.3 0.3-0.2 0.1-0.4 0.2-0.2-0.1-0.4-0.2-0.2-0.1-0.3-0.3v-0.4c-0.2-1.2-0.7-2.4-1.4-3.4-0.7-1.1-1.6-1.9-2.7-2.6-1.5-0.9-3.3-1-5-1h-7.7c0.5 9.2 8.1 16.6 17.5 16.6z"/>
			<path class="s0" d="m0 16.6h7.7c1.7 0 3.5-0.1 5-1 1.2-0.7 2.2-1.7 2.9-2.9 0.9-1.5 1-3.3 1-5v-7.7h-11.3c-1.4 0-2.8 0.6-3.8 1.5-0.9 1-1.5 2.4-1.5 3.8z"/>
			<path class="s0" d="m59.9 20.9l1.8 0.3v4.3h-11.5l-0.2-2.1q0.3-0.4 1.4-0.8v-11.4q-1.1-0.4-1.4-0.9l0.2-2h5.9l0.3 2q-0.5 0.5-1.4 0.9v11.6h3.9q0.4-1.3 1-1.9zm20-4.5q0 2.6-0.6 4.4-0.6 1.8-1.6 2.9-1 1-2.4 1.5-1.4 0.5-3 0.5-2.3 0-3.8-0.9-1.6-0.9-2.4-2.8-0.8-2-0.8-5.2 0-4.4 2-6.6 2-2.2 5.5-2.2 3.5 0 5.3 2 1.8 2 1.8 6.4zm-3.8 0.5q0-6-3.6-6-1.7 0-2.5 1.3-0.4 0.5-0.6 1.4-0.3 0.9-0.3 2-0.1 1.1 0 2.2 0.1 1.1 0.3 2.1 0.2 0.9 0.6 1.5 1 1.5 2.6 1.5 1.7 0 2.6-1.4 0.9-1.4 0.9-4.6zm15.4-6q-1.7 0-2.6 1.3-1 1.3-1 4.5 0 6.2 3.4 6.2 1.4 0 2.4-0.5v-2.8q-1.1-0.4-1.6-0.9l0.3-2h5.8l0.3 2q-0.3 0.4-1.2 0.8v4.6q-1.2 0.9-2.6 1.2-1.5 0.4-3.6 0.4-3.6 0-5.3-2-1.6-2.1-1.6-6.7 0-4.5 2-6.7 2-2.3 5.4-2.3 3.5 0 5.7 1.6v0.6q0 0.3-0.1 0.9-0.1 0.5-0.2 1.2-0.2 0.6-0.4 1h-2.3q-0.4-0.7-0.5-2-1.1-0.4-2.3-0.4zm25.5 5.5q0 2.6-0.5 4.4-0.6 1.8-1.7 2.9-1 1-2.4 1.5-1.3 0.5-3 0.5-2.2 0-3.8-0.9-1.5-0.9-2.3-2.8-0.8-2-0.8-5.2 0-4.4 2-6.6 2-2.2 5.4-2.2 3.6 0 5.4 2 1.7 2 1.7 6.4zm-3.7 0.5q0-6-3.6-6-1.7 0-2.6 1.3-0.3 0.5-0.6 1.4-0.2 0.9-0.3 2 0 1.1 0.1 2.2 0 1.1 0.3 2.1 0.2 0.9 0.6 1.5 0.9 1.5 2.6 1.5 1.6 0 2.6-1.4 0.9-1.4 0.9-4.6z"/>
		</g>
	</g>
</svg>